<?xml version="1.0" encoding="utf-8"?>
<svg id="Layer_1" data-name="Layer 1" viewBox="0 0 750 750" xmlns="http://www.w3.org/2000/svg">
  <defs>
    <style>
      .cls-1 {
        fill: #a03639;
      }
    </style>
  </defs>
  <g transform="matrix(1, 0, 0, 1, 0, 0.000103)">
    <rect class="cls-1" x="415.92" y="520.54" width="164.35" height="53.66"/>
    <path class="cls-1" d="M489.71,17.44,476.29,54.33h225A175.31,175.31,0,0,0,574.15,0H505Q511.3,6.63,489.71,17.44Z"/>
    <rect class="cls-1" x="415.92" y="409.86" width="164.35" height="57.02"/>
    <path class="cls-1" d="M580.27,108l13.41,43.61L530,158.3,519.89,108H452.81q-26.88,47-53.66,80.5l254.9-13.42,30.19,57q10.07,26.9-33.54,3.36-335.43,6.75-459.5,6.71-20.13,60.36-73.79,114H647.35V466.88H750v-291A175.18,175.18,0,0,0,736.42,108ZM335.42,342.78q-3.37-36.87-16.77-77.15l63.73-3.35a384.35,384.35,0,0,1,26.83,70.43Zm211.31-70.44,60.37-26.83q70.42,33.57,127.45,93.91l-67.08,30.19Q620.46,316,546.73,272.34Z"/>
    <path class="cls-1" d="M348.84,466.88v-57H104V366.25L73.81,393.09l-43.6-50.31Q110.7,289.15,151,178.43l47,16.77L379,188.49l-33.54-43.6Q396.65,96.88,429.57,0H201.77q7.68,6.63-13.93,17.44L167.72,54.33H362.25V108H261.63l20.13,43.61L214.68,165l-13.42-57H140.89Q107.32,158.3,50.33,208.61L6.73,158.3q75.8-57.6,118.76-151A175.91,175.91,0,0,0,0,175.85v291Z"/>
    <path class="cls-1" d="M281.76,698.3h53.66c8.91,0,13.42-4.5,13.42-13.41v-57H104V574.2H348.84V520.54H0v53.61A175.85,175.85,0,0,0,175.85,750H295.36Z"/>
    <path class="cls-1" d="M647.35,520.54V651.35H580.27V627.87H415.92v80.5q0,28.25-13.05,41.63H574.15A175.85,175.85,0,0,0,750,574.15V520.54Z"/>
  </g>
</svg>